<mxfile host="app.diagrams.net" modified="2021-03-23T12:47:10.608Z" agent="5.0 (Windows NT 10.0; Win64; x64) AppleWebKit/537.36 (KHTML, like Gecko) Chrome/89.0.4389.90 Safari/537.36" etag="ykPtAp372GtzFaL1s7e0" version="14.5.0" type="github">
  <diagram id="DBPY9RQ4vL4Tk7dEMrQg" name="Page-1">
    <mxGraphModel dx="1422" dy="762" grid="1" gridSize="10" guides="1" tooltips="1" connect="1" arrows="1" fold="1" page="1" pageScale="1" pageWidth="850" pageHeight="1100" math="0" shadow="0">
      <root>
        <mxCell id="0" />
        <mxCell id="1" parent="0" />
        <mxCell id="1oB4Dc-Z0sABJ8Vzxep0-10" value="" style="rounded=0;whiteSpace=wrap;html=1;" vertex="1" parent="1">
          <mxGeometry x="100" y="100" width="620" height="730" as="geometry" />
        </mxCell>
        <mxCell id="1oB4Dc-Z0sABJ8Vzxep0-1" value="Database&lt;br&gt;14.225.241.177: 8433" style="shape=cylinder3;whiteSpace=wrap;html=1;boundedLbl=1;backgroundOutline=1;size=15;" vertex="1" parent="1">
          <mxGeometry x="165" y="420" width="155" height="140" as="geometry" />
        </mxCell>
        <mxCell id="1oB4Dc-Z0sABJ8Vzxep0-3" value="Website&lt;br&gt;14.225.241.173: 8080" style="rounded=0;whiteSpace=wrap;html=1;" vertex="1" parent="1">
          <mxGeometry x="150" y="130" width="180" height="80" as="geometry" />
        </mxCell>
        <mxCell id="1oB4Dc-Z0sABJ8Vzxep0-4" value="Website&lt;br&gt;14.225.241.174 : 8080" style="rounded=0;whiteSpace=wrap;html=1;" vertex="1" parent="1">
          <mxGeometry x="150" y="230" width="180" height="80" as="geometry" />
        </mxCell>
        <mxCell id="1oB4Dc-Z0sABJ8Vzxep0-5" value="Microservices&lt;br&gt;(POVAS + WHS)&lt;br&gt;14.225.241.175&lt;br&gt;Port: 8000, 52840" style="rounded=0;whiteSpace=wrap;html=1;" vertex="1" parent="1">
          <mxGeometry x="151" y="332" width="180" height="80" as="geometry" />
        </mxCell>
        <mxCell id="1oB4Dc-Z0sABJ8Vzxep0-11" value="&lt;div&gt;&lt;span&gt;&lt;b&gt;LB&amp;nbsp;&lt;/b&gt;&lt;/span&gt;&lt;/div&gt;&lt;div style=&quot;text-align: justify&quot;&gt;&lt;span&gt;14.225.241.184&lt;/span&gt;&lt;/div&gt;" style="rounded=90;whiteSpace=wrap;html=1;" vertex="1" parent="1">
          <mxGeometry x="459" y="330" width="100" height="230" as="geometry" />
        </mxCell>
        <mxCell id="1oB4Dc-Z0sABJ8Vzxep0-13" value="" style="endArrow=classic;startArrow=classic;html=1;entryX=0.1;entryY=0.295;entryDx=0;entryDy=0;entryPerimeter=0;" edge="1" parent="1" target="1oB4Dc-Z0sABJ8Vzxep0-37">
          <mxGeometry width="50" height="50" relative="1" as="geometry">
            <mxPoint x="330" y="176" as="sourcePoint" />
            <mxPoint x="380" y="176" as="targetPoint" />
            <Array as="points" />
          </mxGeometry>
        </mxCell>
        <mxCell id="1oB4Dc-Z0sABJ8Vzxep0-14" value="" style="endArrow=classic;startArrow=classic;html=1;exitX=1;exitY=0.5;exitDx=0;exitDy=0;entryX=0;entryY=0.795;entryDx=0;entryDy=0;entryPerimeter=0;" edge="1" parent="1" source="1oB4Dc-Z0sABJ8Vzxep0-4" target="1oB4Dc-Z0sABJ8Vzxep0-37">
          <mxGeometry width="50" height="50" relative="1" as="geometry">
            <mxPoint x="400" y="370" as="sourcePoint" />
            <mxPoint x="380" y="270" as="targetPoint" />
          </mxGeometry>
        </mxCell>
        <mxCell id="1oB4Dc-Z0sABJ8Vzxep0-15" value="" style="endArrow=classic;startArrow=classic;html=1;" edge="1" parent="1">
          <mxGeometry width="50" height="50" relative="1" as="geometry">
            <mxPoint x="330" y="370" as="sourcePoint" />
            <mxPoint x="380" y="370" as="targetPoint" />
          </mxGeometry>
        </mxCell>
        <mxCell id="1oB4Dc-Z0sABJ8Vzxep0-16" value="" style="endArrow=classic;startArrow=classic;html=1;exitX=1.15;exitY=0.311;exitDx=0;exitDy=0;exitPerimeter=0;entryX=0.02;entryY=0.857;entryDx=0;entryDy=0;entryPerimeter=0;" edge="1" parent="1" source="1oB4Dc-Z0sABJ8Vzxep0-25" target="1oB4Dc-Z0sABJ8Vzxep0-11">
          <mxGeometry width="50" height="50" relative="1" as="geometry">
            <mxPoint x="390" y="490" as="sourcePoint" />
            <mxPoint x="460" y="490" as="targetPoint" />
          </mxGeometry>
        </mxCell>
        <mxCell id="1oB4Dc-Z0sABJ8Vzxep0-18" value="Users" style="shape=umlActor;verticalLabelPosition=bottom;verticalAlign=top;html=1;outlineConnect=0;" vertex="1" parent="1">
          <mxGeometry x="650" y="160" width="50" height="110" as="geometry" />
        </mxCell>
        <mxCell id="1oB4Dc-Z0sABJ8Vzxep0-21" value="" style="endArrow=classic;startArrow=classic;html=1;entryX=0.5;entryY=0.5;entryDx=0;entryDy=0;entryPerimeter=0;exitX=1;exitY=0.5;exitDx=0;exitDy=0;" edge="1" parent="1" source="1oB4Dc-Z0sABJ8Vzxep0-34" target="1oB4Dc-Z0sABJ8Vzxep0-18">
          <mxGeometry width="50" height="50" relative="1" as="geometry">
            <mxPoint x="600" y="370" as="sourcePoint" />
            <mxPoint x="650" y="320" as="targetPoint" />
          </mxGeometry>
        </mxCell>
        <mxCell id="1oB4Dc-Z0sABJ8Vzxep0-22" value="Blank&lt;br&gt;14.225.241.164" style="rounded=0;whiteSpace=wrap;html=1;" vertex="1" parent="1">
          <mxGeometry x="400" y="596" width="120" height="40" as="geometry" />
        </mxCell>
        <mxCell id="1oB4Dc-Z0sABJ8Vzxep0-23" value="Database&lt;br&gt;14.225.241.178: 8433" style="shape=cylinder3;whiteSpace=wrap;html=1;boundedLbl=1;backgroundOutline=1;size=15;" vertex="1" parent="1">
          <mxGeometry x="164" y="596" width="155" height="140" as="geometry" />
        </mxCell>
        <mxCell id="1oB4Dc-Z0sABJ8Vzxep0-24" value="" style="endArrow=classic;startArrow=classic;html=1;" edge="1" parent="1" source="1oB4Dc-Z0sABJ8Vzxep0-23">
          <mxGeometry width="50" height="50" relative="1" as="geometry">
            <mxPoint x="190" y="610" as="sourcePoint" />
            <mxPoint x="240" y="560" as="targetPoint" />
          </mxGeometry>
        </mxCell>
        <mxCell id="1oB4Dc-Z0sABJ8Vzxep0-25" value="" style="shape=process;whiteSpace=wrap;html=1;backgroundOutline=1;" vertex="1" parent="1">
          <mxGeometry x="351" y="440" width="20" height="280" as="geometry" />
        </mxCell>
        <mxCell id="1oB4Dc-Z0sABJ8Vzxep0-26" value="" style="endArrow=classic;startArrow=classic;html=1;exitX=1;exitY=0.5;exitDx=0;exitDy=0;exitPerimeter=0;entryX=-0.15;entryY=0.175;entryDx=0;entryDy=0;entryPerimeter=0;" edge="1" parent="1" source="1oB4Dc-Z0sABJ8Vzxep0-1" target="1oB4Dc-Z0sABJ8Vzxep0-25">
          <mxGeometry width="50" height="50" relative="1" as="geometry">
            <mxPoint x="410" y="440" as="sourcePoint" />
            <mxPoint x="450" y="410" as="targetPoint" />
          </mxGeometry>
        </mxCell>
        <mxCell id="1oB4Dc-Z0sABJ8Vzxep0-27" value="" style="endArrow=classic;startArrow=classic;html=1;" edge="1" parent="1">
          <mxGeometry width="50" height="50" relative="1" as="geometry">
            <mxPoint x="319" y="664" as="sourcePoint" />
            <mxPoint x="349" y="664" as="targetPoint" />
          </mxGeometry>
        </mxCell>
        <mxCell id="1oB4Dc-Z0sABJ8Vzxep0-28" value="Microservices source code&lt;br&gt;14.225.241.176&lt;br&gt;Port: 8000, 52840" style="rounded=0;whiteSpace=wrap;html=1;" vertex="1" parent="1">
          <mxGeometry x="181.5" y="750" width="128.5" height="60" as="geometry" />
        </mxCell>
        <mxCell id="1oB4Dc-Z0sABJ8Vzxep0-29" value="Blank&lt;br&gt;14.225.241.165" style="rounded=0;whiteSpace=wrap;html=1;" vertex="1" parent="1">
          <mxGeometry x="400" y="650" width="120" height="40" as="geometry" />
        </mxCell>
        <mxCell id="1oB4Dc-Z0sABJ8Vzxep0-30" value="Blank&lt;br&gt;14.225.241.166" style="rounded=0;whiteSpace=wrap;html=1;" vertex="1" parent="1">
          <mxGeometry x="400" y="710" width="120" height="40" as="geometry" />
        </mxCell>
        <mxCell id="1oB4Dc-Z0sABJ8Vzxep0-31" value="Blank&lt;br&gt;14.225.241.167" style="rounded=0;whiteSpace=wrap;html=1;" vertex="1" parent="1">
          <mxGeometry x="550" y="596" width="120" height="40" as="geometry" />
        </mxCell>
        <mxCell id="1oB4Dc-Z0sABJ8Vzxep0-32" value="Blank&lt;br&gt;14.225.241.168" style="rounded=0;whiteSpace=wrap;html=1;" vertex="1" parent="1">
          <mxGeometry x="550" y="650" width="120" height="40" as="geometry" />
        </mxCell>
        <mxCell id="1oB4Dc-Z0sABJ8Vzxep0-33" value="blank&lt;br&gt;14.225.241.169" style="rounded=0;whiteSpace=wrap;html=1;" vertex="1" parent="1">
          <mxGeometry x="550" y="710" width="120" height="40" as="geometry" />
        </mxCell>
        <mxCell id="1oB4Dc-Z0sABJ8Vzxep0-34" value="&lt;div&gt;&lt;span&gt;&lt;b&gt;LB&amp;nbsp;&lt;/b&gt;&lt;/span&gt;&lt;/div&gt;&lt;div style=&quot;text-align: justify&quot;&gt;&lt;span&gt;14.225.241.180&lt;/span&gt;&lt;/div&gt;" style="rounded=90;whiteSpace=wrap;html=1;" vertex="1" parent="1">
          <mxGeometry x="459" y="120" width="100" height="190" as="geometry" />
        </mxCell>
        <mxCell id="1oB4Dc-Z0sABJ8Vzxep0-35" value="" style="endArrow=classic;startArrow=classic;html=1;fontFamily=Helvetica;fontSize=11;fontColor=#000000;align=center;strokeColor=#000000;" edge="1" parent="1" target="1oB4Dc-Z0sABJ8Vzxep0-3">
          <mxGeometry width="50" height="50" relative="1" as="geometry">
            <mxPoint x="150" y="372" as="sourcePoint" />
            <mxPoint x="450" y="390" as="targetPoint" />
            <Array as="points">
              <mxPoint x="120" y="372" />
              <mxPoint x="120" y="170" />
            </Array>
          </mxGeometry>
        </mxCell>
        <mxCell id="1oB4Dc-Z0sABJ8Vzxep0-36" value="" style="endArrow=classic;startArrow=classic;html=1;entryX=0;entryY=0.5;entryDx=0;entryDy=0;exitX=0.006;exitY=0.338;exitDx=0;exitDy=0;exitPerimeter=0;" edge="1" parent="1" source="1oB4Dc-Z0sABJ8Vzxep0-5" target="1oB4Dc-Z0sABJ8Vzxep0-4">
          <mxGeometry width="50" height="50" relative="1" as="geometry">
            <mxPoint x="400" y="440" as="sourcePoint" />
            <mxPoint x="450" y="390" as="targetPoint" />
            <Array as="points">
              <mxPoint x="130" y="359" />
              <mxPoint x="130" y="270" />
            </Array>
          </mxGeometry>
        </mxCell>
        <mxCell id="1oB4Dc-Z0sABJ8Vzxep0-37" value="" style="shape=process;whiteSpace=wrap;html=1;backgroundOutline=1;" vertex="1" parent="1">
          <mxGeometry x="415" y="120" width="20" height="190" as="geometry" />
        </mxCell>
        <mxCell id="1oB4Dc-Z0sABJ8Vzxep0-38" value="" style="endArrow=classic;startArrow=classic;html=1;exitX=1;exitY=0.5;exitDx=0;exitDy=0;exitPerimeter=0;" edge="1" parent="1">
          <mxGeometry width="50" height="50" relative="1" as="geometry">
            <mxPoint x="435" y="215.5" as="sourcePoint" />
            <mxPoint x="460" y="215" as="targetPoint" />
          </mxGeometry>
        </mxCell>
        <mxCell id="1oB4Dc-Z0sABJ8Vzxep0-39" value="" style="shape=process;whiteSpace=wrap;html=1;backgroundOutline=1;" vertex="1" parent="1">
          <mxGeometry x="380" y="280" width="20" height="190" as="geometry" />
        </mxCell>
        <mxCell id="1oB4Dc-Z0sABJ8Vzxep0-40" value="" style="endArrow=classic;startArrow=classic;html=1;" edge="1" parent="1">
          <mxGeometry width="50" height="50" relative="1" as="geometry">
            <mxPoint x="331" y="290" as="sourcePoint" />
            <mxPoint x="381" y="290" as="targetPoint" />
          </mxGeometry>
        </mxCell>
        <mxCell id="1oB4Dc-Z0sABJ8Vzxep0-41" value="" style="endArrow=classic;startArrow=classic;html=1;" edge="1" parent="1">
          <mxGeometry width="50" height="50" relative="1" as="geometry">
            <mxPoint x="400" y="400" as="sourcePoint" />
            <mxPoint x="450" y="400" as="targetPoint" />
          </mxGeometry>
        </mxCell>
      </root>
    </mxGraphModel>
  </diagram>
</mxfile>
